PathFileType	3	(X/Y/Z)	C:\Users\koon_\Desktop\
DataRate	CameraRate	NumFrames	NumMarkers	Units	OrigDataRate	OrigDataStartFrame	OrigNumFrames
100.0	100.0	9	27	mm	100.0	1500	3999	
Frame#	Time	get:LFHD			get:RFHD			get:LBHD			get:RBHD			get:C7			get:T10			get:CLAV			get:STRN			get:RBAK			get:LSHO			get:LUPA			get:LELB			get:LFRA			get:LWRA			get:LWRB			get:LFIN			get:RSHO			get:RUPA			get:RELB			get:RFRA			get:RWRA			get:RWRB			get:RFIN			get:LASI			get:RASI			get:LPSI			get:RPSI			
		X1	Y1	Z1	X2	Y2	Z2	X3	Y3	Z3	X4	Y4	Z4	X5	Y5	Z5	X6	Y6	Z6	X7	Y7	Z7	X8	Y8	Z8	X9	Y9	Z9	X10	Y10	Z10	X11	Y11	Z11	X12	Y12	Z12	X13	Y13	Z13	X14	Y14	Z14	X15	Y15	Z15	X16	Y16	Z16	X17	Y17	Z17	X18	Y18	Z18	X19	Y19	Z19	X20	Y20	Z20	X21	Y21	Z21	X22	Y22	Z22	X23	Y23	Z23	X24	Y24	Z24	X25	Y25	Z25	X26	Y26	Z26	X27	Y27	Z27	
1500	14.99	75.086868	1574.6951	-103.20605	-81.66481	1563.7056	-103.83976	71.402992	1555.4583	-227.01041	-54.664345	1555.5957	-248.19389	6.2658153	1371.8274	-252.46432	-1.5515416	1112.1117	-275.10141	-5.1773858	1302.7793	-63.036583	1.0930992	1117.7175	-11.520008	-81.744537	1307.5313	-279.35999	148.98009	1370.6901	-152.94093	216.43057	1255.5837	-91.610016	230.21593	1094.921	-5.2449574	189.54361	1123.6332	114.22974	148.42899	1113.224	203.12402	192.20975	1060.2207	205.56728	183.66795	1080.3362	290.39374	-139.73363	1378.3839	-169.91063	-237.60867	1212.7018	-77.353523	-257.76984	1099.6328	-50.108341	-231.6356	1142.5981	43.665958	-182.76512	1126.8347	188.62634	-225.69119	1068.4633	183.07228	-213.48657	1111.0835	263.53632	123.89735	923.82764	-64.540871	-155.39374	915.83392	-73.349152	45.923901	955.89832	-271.30399	-66.936714	948.29517	-272.31329
1501	15	74.947235	1574.7819	-103.82747	-81.856361	1563.3176	-105.00441	71.136742	1555.9309	-227.66631	-55.079922	1556.1875	-249.15773	6.3264441	1371.4171	-254.174	-1.4373678	1112.0238	-275.64954	-5.2154717	1303.4285	-64.174591	1.2422752	1118.4629	-12.091601	-81.635246	1307.2159	-280.5907	148.29613	1371.2859	-154.50066	216.2654	1258.8335	-90.785393	231.55885	1101.3007	0.1783874	190.59435	1134.3207	118.35471	149.40001	1126.9861	207.60767	193.17886	1074.0787	212.23907	185.91705	1097.9741	295.95102	-139.14726	1378.8541	-171.76094	-238.4348	1217.3114	-75.58094	-260.09479	1105.666	-44.723907	-233.21812	1151.9375	47.136158	-183.87924	1141.7186	192.35934	-224.71661	1083.3665	193.59128	-214.25505	1129.1945	268.64789	123.71233	923.89722	-64.822487	-155.75545	916.32941	-73.885872	45.980297	955.87396	-271.65247	-66.736687	948.42255	-273.54526
1502	15.01	74.519676	1574.7914	-104.45999	-82.096588	1563.1021	-105.65445	70.881958	1556.3264	-228.32959	-55.300934	1556.4359	-249.89378	6.4104958	1371.0145	-255.78365	-1.3821762	1111.9042	-276.22034	-5.2266688	1304.0271	-65.119011	1.3274637	1119.0872	-12.747514	-81.567001	1306.9701	-281.84329	147.58563	1371.8851	-155.95161	216.13885	1262.2268	-90.070503	232.96562	1108.025	5.6538839	191.65977	1145.1768	122.56171	150.31743	1141.0359	211.95056	194.38722	1088.6044	218.60588	186.87321	1115.4761	301.51501	-138.49883	1379.307	-173.40182	-239.22057	1222.1036	-73.752441	-262.31451	1112.0134	-39.264408	-234.79417	1161.5663	50.572601	-184.88972	1156.8457	196.15179	-228.3131	1099.4022	195.37027	-214.80183	1147.4229	273.66443	123.19087	923.77631	-64.998299	-155.90236	916.39233	-74.371979	46.002438	955.80609	-271.94763	-66.719589	948.34119	-273.85324
1503	15.02	74.196648	1574.8981	-105.08479	-82.443054	1562.873	-106.34398	70.570381	1556.7013	-229.04031	-55.477154	1556.3181	-250.29686	6.4425831	1370.6995	-257.44244	-1.290704	1111.8071	-276.70706	-5.210155	1304.5692	-66.164513	1.4261675	1119.6696	-13.401733	-81.532394	1306.7792	-283.07462	146.87292	1372.4769	-157.34346	215.95885	1265.7559	-89.213875	234.26152	1115.1101	10.996333	192.62543	1156.2532	126.46614	151.23543	1155.2878	215.98409	195.65578	1103.256	224.7283	186.82686	1133.3862	306.51343	-137.90916	1379.7877	-175.01587	-239.86188	1227.1332	-71.925453	-264.33676	1118.7262	-33.77911	-236.24304	1171.4551	53.993935	-185.8062	1172.1512	199.52551	-229.45427	1114.9838	201.22414	-215.3501	1165.7998	277.59427	123.10003	923.99524	-65.325592	-156.05989	916.45557	-74.800797	45.974529	955.73157	-272.25192	-66.714973	948.21735	-274.24713
1504	15.03	74.041306	1575.0652	-105.8205	-82.909416	1562.8112	-106.36118	70.229935	1556.9617	-229.70232	-55.812157	1556.4348	-250.93886	6.5298285	1370.4249	-258.97339	-1.2339941	1111.7338	-277.13464	-5.2997279	1305.059	-67.152374	1.400488	1120.5765	-13.871908	-81.476151	1306.5553	-284.13568	146.09137	1373.0984	-158.72987	215.83047	1269.4613	-88.310204	235.55072	1122.4929	16.35762	193.63495	1167.5581	130.38966	152.1377	1169.6318	219.80656	196.52509	1118.2277	230.42751	187.65164	1151.4192	311.27231	-137.24353	1380.2855	-176.51854	-240.49834	1232.4094	-70.132523	-266.28662	1125.7853	-28.249609	-237.51797	1181.6798	57.3255	-186.49751	1187.6487	202.63873	-230.36462	1130.8881	206.83937	-215.4637	1183.8762	280.38736	122.97868	924.06439	-65.558289	-156.23195	916.48163	-75.26236	45.954563	955.63544	-272.52441	-66.726006	948.09521	-274.57208
1505	15.04	73.557014	1575.1571	-106.42559	-83.152481	1562.6805	-107.17152	69.904205	1557.2599	-230.39581	-56.12006	1556.5806	-251.67174	6.6166534	1370.1132	-260.52866	-1.2268348	1111.7124	-277.50412	-5.3090835	1305.5398	-67.978394	1.4702945	1121.0642	-14.486917	-81.473366	1306.4514	-285.34796	145.22055	1373.6245	-160.09351	215.67847	1273.373	-87.46946	236.72987	1130.2258	21.605793	194.54921	1178.9895	134.07645	152.95607	1183.9622	223.2963	197.62648	1133.3372	235.93936	188.47365	1169.3966	315.51468	-136.6532	1380.8159	-178.09438	-241.0126	1237.9976	-68.32988	-268.13867	1133.2965	-22.783178	-238.55112	1192.1647	60.617493	-187.00102	1203.2294	205.46581	-231.19229	1147.2251	211.8786	-215.99731	1202.7391	283.45001	122.82996	924.1347	-65.820351	-156.37926	916.50659	-75.624969	45.928719	955.5824	-272.88138	-66.724442	948.00867	-274.82037
1506	15.05	73.343445	1575.3035	-107.0365	-83.472961	1562.5966	-107.79427	69.562675	1557.5675	-231.02667	-56.498306	1556.651	-252.20493	6.6965241	1369.7798	-261.98465	-1.1937875	1111.6918	-277.87323	-5.3961549	1306.0725	-68.78215	1.4525641	1121.5532	-15.06822	-81.546104	1306.2274	-286.2478	144.38809	1374.1506	-161.30641	215.59766	1277.4142	-86.537712	237.96649	1138.2773	26.899694	195.45592	1190.5935	137.67123	153.62453	1198.3612	226.72574	198.59921	1148.443	241.08806	189.25403	1187.2859	319.42325	-136.01981	1381.2952	-179.5461	-241.4482	1243.8958	-66.377533	-269.94769	1141.1912	-17.417252	-239.36366	1202.8148	63.781357	-187.26308	1218.7809	208.06	-231.91237	1163.5321	216.52139	-216.05518	1220.9668	286.19922	122.71599	924.17828	-65.993576	-156.47337	916.5108	-75.925774	45.872437	955.53223	-273.13358	-66.892212	947.79248	-274.55011
1507	15.06	72.896233	1575.3035	-107.67162	-83.736664	1562.5093	-108.29301	69.182137	1557.842	-231.69057	-56.857079	1556.7974	-252.75453	6.7550197	1369.368	-263.33011	-1.1777985	1111.7177	-278.13321	-5.4867592	1306.5903	-69.602692	1.4308419	1122.0406	-15.572294	-81.6745	1306.0789	-287.26877	143.49469	1374.6852	-162.53268	215.36717	1281.6636	-85.623627	239.13774	1146.6512	32.013618	196.26178	1202.3147	141.21098	154.37093	1212.804	229.81316	199.49129	1163.5594	246.0013	189.93285	1205.0426	322.83267	-135.34221	1381.7848	-180.8726	-241.8239	1249.9524	-64.477516	-271.61929	1149.4889	-12.00895	-240.05815	1213.5356	66.712784	-187.55016	1234.3038	210.07774	-232.44829	1179.746	220.66164	-215.98671	1239.1461	288.07431	122.56417	924.21014	-66.189125	-156.62671	916.50806	-76.289352	45.852428	955.55536	-273.38281	-66.937767	947.76483	-274.76843
1508	15.07	72.673019	1575.4208	-108.34332	-83.88765	1562.2148	-109.30202	68.910355	1558.1172	-232.35452	-57.278896	1557.2369	-253.52954	6.8162398	1368.9884	-264.52081	-1.1675177	1111.7356	-278.40775	-5.6002159	1307.2286	-69.882996	1.388887	1122.4943	-15.911411	-81.834671	1305.939	-288.24246	142.53867	1375.2793	-163.74121	215.06856	1286.1237	-84.703392	240.25525	1155.312	37.082844	197.03041	1214.1332	144.5215	155.06671	1227.1182	232.77786	200.28902	1178.6591	250.59932	190.61905	1222.6761	325.98871	-134.73016	1382.229	-182.18419	-242.09732	1256.2828	-62.540413	-273.23892	1158.0986	-6.719439	-240.48972	1224.5161	69.611282	-187.45532	1249.4349	212.38248	-232.68224	1195.6965	224.75972	-216.00742	1257.0438	289.70447	122.42735	924.32635	-66.370918	-156.71742	916.51263	-76.506775	45.810116	955.56952	-273.58459	-66.98835	947.76636	-274.9603
